<?xml version="1.0" standalone="no"?>
<!DOCTYPE svg PUBLIC "-//W3C//DTD SVG 1.1//EN"
  "http://www.w3.org/Graphics/SVG/1.1/DTD/svg11.dtd">
<svg width="131.5800018310547mm" height="66.91999816894531mm" viewBox="-70.58000183105469 -37.91999816894531 131.5800018310547 66.91999816894531" xmlns="http://www.w3.org/2000/svg" version="1.1">
	<title>svgOutput</title>
	<desc>made with tinkercad</desc>
<path d="M -58.41999816894531 7.900000095367432 L -57.34400177001953 7.900000095367432 L -52.2599983215332 7.900000095367432 L -52.05311584472656 8.192000389099121 L -49.152000427246094 12.28664779663086 L -49.15104293823242 12.288000106811523 L -48.85900115966797 12.700189590454102 L -46.24897003173828 16.384000778198242 L -42.439998626708984 21.760000228881836 L -42.439998626708984 16.384000778198242 L -42.439998626708984 12.288000106811523 L -42.439998626708984 11.0600004196167 L -42.44300079345703 10.880000114440918 L -42.452999114990234 10.713000297546387 L -42.470001220703125 10.5600004196167 L -42.49300003051758 10.420000076293945 L -42.52299880981445 10.293000221252441 L -42.54035568237305 10.239999771118164 L -42.560001373291016 10.180000305175781 L -42.60200119018555 10.071000099182129 L -42.64899826049805 9.970999717712402 L -42.70000076293945 9.880000114440918 L -42.75600051879883 9.79800033569336 L -42.816001892089844 9.723999977111816 L -42.880001068115234 9.65999984741211 L -42.948001861572266 9.609000205993652 L -43.007999420166016 9.571499824523926 L -43.02000045776367 9.564000129699707 L -43.095001220703125 9.524999618530273 L -43.17300033569336 9.491000175476074 L -43.248165130615234 9.465332984924316 L -43.255001068115234 9.463000297546387 L -43.34000015258789 9.4399995803833 L -43.426998138427734 9.416000366210938 L -43.51599884033203 9.395999908447266 L -43.60499954223633 9.380000114440918 L -43.69599914550781 9.369000434875488 L -43.7869987487793 9.362000465393066 L -43.880001068115234 9.359999656677246 L -45.040000915527344 9.359999656677246 L -45.040000915527344 8.192000389099121 L -45.040000915527344 7.900000095367432 L -40.959999084472656 7.900000095367432 L -37.779998779296875 7.900000095367432 L -37.779998779296875 8.192000389099121 L -37.779998779296875 9.359999656677246 L -38.9119987487793 9.359999656677246 L -38.959999084472656 9.359999656677246 L -39.053001403808594 9.362000465393066 L -39.14400100708008 9.369000434875488 L -39.23500061035156 9.380000114440918 L -39.32400131225586 9.395999908447266 L -39.40299606323242 9.413752555847168 L -39.41299819946289 9.416000366210938 L -39.5 9.4399995803833 L -39.584999084472656 9.463000297546387 L -39.66699981689453 9.493000030517578 L -39.744998931884766 9.529999732971191 L -39.81999969482422 9.572999954223633 L -39.891998291015625 9.623000144958496 L -39.93600082397461 9.659882545471191 L -39.959999084472656 9.680000305175781 L -40.02399826049805 9.75100040435791 L -40.082000732421875 9.829000473022461 L -40.1349983215332 9.914999961853027 L -40.18199920654297 10.008999824523926 L -40.2239990234375 10.111000061035156 L -40.2599983215332 10.220000267028809 L -40.2648811340332 10.239999771118164 L -40.29100036621094 10.347000122070312 L -40.316001892089844 10.487000465393066 L -40.334999084472656 10.640000343322754 L -40.3489990234375 10.807000160217285 L -40.356998443603516 10.987000465393066 L -40.36000061035156 11.180000305175781 L -40.36000061035156 12.288000106811523 L -40.36000061035156 16.384000778198242 L -40.36000061035156 24.576000213623047 L -40.36000061035156 27.719999313354492 L -40.959999084472656 27.719999313354492 L -42.439998626708984 27.719999313354492 L -42.91999816894531 27.719999313354492 L -48.85900115966797 19.348421096801758 L -49.152000427246094 18.935409545898438 L -50.962032318115234 16.384000778198242 L -53.7599983215332 12.4399995803833 L -53.7599983215332 16.384000778198242 L -53.7599983215332 24.440000534057617 L -53.75788497924805 24.576000213623047 L -53.75699996948242 24.632999420166016 L -53.749000549316406 24.812999725341797 L -53.73500061035156 24.979999542236328 L -53.715999603271484 25.132999420166016 L -53.691001892089844 25.273000717163086 L -53.65999984741211 25.399999618530273 L -53.61800003051758 25.509000778198242 L -53.57099914550781 25.611000061035156 L -53.52000045776367 25.704999923706055 L -53.4640007019043 25.791000366210938 L -53.40399932861328 25.868999481201172 L -53.34000015258789 25.940000534057617 L -53.27799987792969 25.996999740600586 L -53.24800109863281 26.01938819885254 L -53.21099853515625 26.047000885009766 L -53.13999938964844 26.09000015258789 L -53.06399917602539 26.12700080871582 L -52.98400115966797 26.156999588012695 L -52.900001525878906 26.18000030517578 L -52.80699920654297 26.197999954223633 L -52.7130012512207 26.21299934387207 L -52.619998931884766 26.225000381469727 L -52.527000427246094 26.232999801635742 L -52.43299865722656 26.238000869750977 L -52.34000015258789 26.239999771118164 L -51.15999984741211 26.239999771118164 L -51.15999984741211 27.719999313354492 L -53.24800109863281 27.719999313354492 L -55.29600143432617 27.719999313354492 L -57.34400177001953 27.719999313354492 L -58.41999816894531 27.719999313354492 L -58.41999816894531 26.239999771118164 L -57.34400177001953 26.239999771118164 L -57.2599983215332 26.239999771118164 L -57.16699981689453 26.238000869750977 L -57.07600021362305 26.232999801635742 L -56.98500061035156 26.225000381469727 L -56.895999908447266 26.21299934387207 L -56.80699920654297 26.197999954223633 L -56.720001220703125 26.18000030517578 L -56.6349983215332 26.156999588012695 L -56.553001403808594 26.12700080871582 L -56.474998474121094 26.09000015258789 L -56.400001525878906 26.047000885009766 L -56.327999114990234 25.996999740600586 L -56.31999969482422 25.990293502807617 L -56.2599983215332 25.940000534057617 L -56.19599914550781 25.868999481201172 L -56.13800048828125 25.791000366210938 L -56.084999084472656 25.704999923706055 L -56.03799819946289 25.611000061035156 L -56.033470153808594 25.600000381469727 L -55.99599838256836 25.509000778198242 L -55.959999084472656 25.399999618530273 L -55.92300033569336 25.273000717163086 L -55.893001556396484 25.132999420166016 L -55.869998931884766 24.979999542236328 L -55.85300064086914 24.812999725341797 L -55.84299850463867 24.632999420166016 L -55.84211349487305 24.576000213623047 L -55.84000015258789 24.440000534057617 L -55.84000015258789 16.384000778198242 L -55.84000015258789 12.288000106811523 L -55.84000015258789 11.0600004196167 L -55.84299850463867 10.880000114440918 L -55.85300064086914 10.713000297546387 L -55.869998931884766 10.5600004196167 L -55.893001556396484 10.420000076293945 L -55.92300033569336 10.293000221252441 L -55.94035339355469 10.239999771118164 L -55.959999084472656 10.180000305175781 L -56.00199890136719 10.071000099182129 L -56.04899978637695 9.970999717712402 L -56.099998474121094 9.880000114440918 L -56.15599822998047 9.79800033569336 L -56.215999603271484 9.723999977111816 L -56.279998779296875 9.65999984741211 L -56.31999969482422 9.630000114440918 L -56.347999572753906 9.609000205993652 L -56.417999267578125 9.564000129699707 L -56.4900016784668 9.524999618530273 L -56.56399917602539 9.491000175476074 L -56.64099884033203 9.463000297546387 L -56.720001220703125 9.4399995803833 L -56.80699920654297 9.416000366210938 L -56.895999908447266 9.395999908447266 L -56.98500061035156 9.380000114440918 L -57.07600021362305 9.369000434875488 L -57.16699981689453 9.362000465393066 L -57.2599983215332 9.359999656677246 L -57.34400177001953 9.359999656677246 L -58.41999816894531 9.359999656677246 L -58.41999816894531 9.32464599609375 L -58.41999816894531 9.1771240234375 L -58.41999816894531 9.045425415039062 L -58.41999816894531 8.192000389099121 L -58.41999816894531 7.900000095367432 M -59.97999954223633 9.380000114440918 L -61.15999984741211 9.380000114440918 L -61.25899887084961 9.381999969482422 L -61.35599899291992 9.388999938964844 L -61.439998626708984 9.398829460144043 L -61.45000076293945 9.399999618530273 L -61.54199981689453 9.416000366210938 L -61.57440185546875 9.423199653625488 L -61.63199996948242 9.435999870300293 L -61.720001220703125 9.460000038146973 L -61.81100082397461 9.482999801635742 L -61.895999908447266 9.512999534606934 L -61.974998474121094 9.550000190734863 L -62.04899978637695 9.593000411987305 L -62.117000579833984 9.642999649047852 L -62.18000030517578 9.699999809265137 L -62.205238342285156 9.727999687194824 L -62.24399948120117 9.770999908447266 L -62.301998138427734 9.848999977111816 L -62.35499954223633 9.9350004196167 L -62.402000427246094 10.029000282287598 L -62.444000244140625 10.130999565124512 L -62.4640007019043 10.191555976867676 L -62.47999954223633 10.239999771118164 L -62.51100158691406 10.366999626159668 L -62.5359992980957 10.506999969482422 L -62.55500030517578 10.65999984741211 L -62.569000244140625 10.82699966430664 L -62.57699966430664 11.006999969482422 L -62.58000183105469 11.199999809265137 L -62.58000183105469 12.288000106811523 L -62.58000183105469 16.384000778198242 L -62.58000183105469 24.440000534057617 L -62.577884674072266 24.576000213623047 L -62.57699966430664 24.632999420166016 L -62.569000244140625 24.812999725341797 L -62.55500030517578 24.979999542236328 L -62.5359992980957 25.132999420166016 L -62.51100158691406 25.273000717163086 L -62.47999954223633 25.399999618530273 L -62.444000244140625 25.509000778198242 L -62.40652847290039 25.600000381469727 L -62.402000427246094 25.611000061035156 L -62.35499954223633 25.704999923706055 L -62.301998138427734 25.791000366210938 L -62.24399948120117 25.868999481201172 L -62.18000030517578 25.940000534057617 L -62.117000579833984 25.996999740600586 L -62.04899978637695 26.047000885009766 L -61.974998474121094 26.09000015258789 L -61.895999908447266 26.12700080871582 L -61.81100082397461 26.156999588012695 L -61.720001220703125 26.18000030517578 L -61.63199996948242 26.197999954223633 L -61.54199981689453 26.21299934387207 L -61.45000076293945 26.225000381469727 L -61.439998626708984 26.22585105895996 L -61.35599899291992 26.232999801635742 L -61.25899887084961 26.238000869750977 L -61.15999984741211 26.239999771118164 L -59.97999954223633 26.239999771118164 L -59.97999954223633 27.719999313354492 L -61.439998626708984 27.719999313354492 L -63.487998962402344 27.719999313354492 L -65.53600311279297 27.719999313354492 L -67.0309829711914 27.719999313354492 L -67.15450286865234 27.719999313354492 L -67.28892517089844 27.719999313354492 L -67.4218978881836 27.719999313354492 L -67.58399963378906 27.719999313354492 L -69.58000183105469 27.719999313354492 L -69.58000183105469 27.289154052734375 L -69.58000183105469 27.05394744873047 L -69.58000183105469 26.840999603271484 L -69.58000183105469 26.656429290771484 L -69.58000183105469 26.53590965270996 L -69.58000183105469 26.467348098754883 L -69.58000183105469 26.410053253173828 L -69.58000183105469 26.34459114074707 L -69.58000183105469 26.300010681152344 L -69.58000183105469 26.262094497680664 L -69.58000183105469 26.239999771118164 L -68.41999816894531 26.239999771118164 L -68.31500244140625 26.238000869750977 L -68.21299743652344 26.232999801635742 L -68.11499786376953 26.225000381469727 L -68.0199966430664 26.21299934387207 L -67.9280014038086 26.197999954223633 L -67.83999633789062 26.18000030517578 L -67.75599670410156 26.156999588012695 L -67.6760025024414 26.12700080871582 L -67.5999984741211 26.09000015258789 L -67.58399963378906 26.08030891418457 L -67.52899932861328 26.047000885009766 L -67.46199798583984 25.996999740600586 L -67.4000015258789 25.940000534057617 L -67.33599853515625 25.868999481201172 L -67.27799987792969 25.791000366210938 L -67.2249984741211 25.704999923706055 L -67.1780014038086 25.611000061035156 L -67.13600158691406 25.509000778198242 L -67.0999984741211 25.399999618530273 L -67.06300354003906 25.273000717163086 L -67.03299713134766 25.132999420166016 L -67.01000213623047 24.979999542236328 L -66.99299621582031 24.812999725341797 L -66.98300170898438 24.632999420166016 L -66.98211669921875 24.576000213623047 L -66.9800033569336 24.440000534057617 L -66.9800033569336 16.384000778198242 L -66.9800033569336 12.288000106811523 L -66.9800033569336 11.199999809265137 L -66.98300170898438 11.006999969482422 L -66.99299621582031 10.82699966430664 L -67.01000213623047 10.65999984741211 L -67.03299713134766 10.506999969482422 L -67.06300354003906 10.366999626159668 L -67.0999984741211 10.239999771118164 L -67.13600158691406 10.130999565124512 L -67.1780014038086 10.029000282287598 L -67.2249984741211 9.9350004196167 L -67.27799987792969 9.848999977111816 L -67.33599853515625 9.770999908447266 L -67.4000015258789 9.699999809265137 L -67.46199798583984 9.642999649047852 L -67.52899932861328 9.593000411987305 L -67.58399963378906 9.559690475463867 L -67.5999984741211 9.550000190734863 L -67.6760025024414 9.512999534606934 L -67.75599670410156 9.482999801635742 L -67.83999633789062 9.460000038146973 L -67.9280014038086 9.435999870300293 L -68.0199966430664 9.416000366210938 L -68.11499786376953 9.399999618530273 L -68.21299743652344 9.388999938964844 L -68.31500244140625 9.381999969482422 L -68.41999816894531 9.380000114440918 L -69.58000183105469 9.380000114440918 L -69.58000183105469 8.192000389099121 L -69.58000183105469 7.900000095367432 L -65.53600311279297 7.900000095367432 L -59.97999954223633 7.900000095367432 L -59.97999954223633 8.192000389099121 L -59.97999954223633 9.227978706359863 L -59.97999954223633 9.289701461791992 L -59.97999954223633 9.356162071228027 L -59.97999954223633 9.380000114440918 M 18.201000213623047 -4.909999847412109 L 18.25 -4.635000228881836 L 18.18000030517578 -4.363999843597412 L 18.06999969482422 -4.105000019073486 L 17.910999298095703 -3.944000005722046 L 17.729999542236328 -3.805000066757202 L 17.1560001373291 -3.4839999675750732 L 16.56999969482422 -3.2049999237060547 L 16.384000778198242 -3.1948912143707275 L 16.29400062561035 -3.190000057220459 L 16.17075538635254 -3.2102410793304443 L 16.020000457763672 -3.234999895095825 L 14.930000305175781 -3.8489999771118164 L 14.299086570739746 -4.173803806304932 L 14.054367065429688 -4.299788951873779 L 13.850000381469727 -4.40500020980835 L 13.503000259399414 -4.24399995803833 L 13.149999618530273 -4.014999866485596 L 12.317999839782715 -3.753000020980835 L 12.288000106811523 -3.7466275691986084 L 11.479999542236328 -3.575000047683716 L 10.711999893188477 -3.742000102996826 L 9.949999809265137 -3.984999895095825 L 9.722113609313965 -4.0960001945495605 L 9.678999900817871 -4.117000102996826 L 9.40999984741211 -4.244999885559082 L 9.265000343322754 -4.23799991607666 L 9.119999885559082 -4.204999923706055 L 8.885329246520996 -4.0960001945495605 L 8.387999534606934 -3.865000009536743 L 8.192000389099121 -3.7879810333251953 L 7.650000095367432 -3.575000047683716 L 6.89900016784668 -3.614000082015991 L 6.279138088226318 -3.7224137783050537 L 6.150000095367432 -3.744999885559082 L 5.7829999923706055 -3.9779999256134033 L 5.553941249847412 -4.0960001945495605 L 5.420000076293945 -4.164999961853027 L 5.2375922203063965 -4.0960001945495605 L 4.388999938964844 -3.7750000953674316 L 4.0960001945495605 -3.6632745265960693 L 3.3399999141693115 -3.375 L 1.9149999618530273 -3.3380000591278076 L 0.47999998927116394 -3.384999990463257 L 0 -3.4282472133636475 L -0.640999972820282 -3.4860000610351562 L -1.6991839408874512 -3.5701630115509033 L -1.7599999904632568 -3.575000047683716 L -2.3310000896453857 -3.4779999256134033 L -2.7849278450012207 -3.41178560256958 L -2.9000000953674316 -3.3949999809265137 L -3.9230000972747803 -3.630000114440918 L -4.0960001945495605 -3.6631710529327393 L -4.940000057220459 -3.825000047683716 L -5.880000114440918 -3.5169999599456787 L -6.820000171661377 -3.184999942779541 L -7.5879998207092285 -3.2170000076293945 L -8.192000389099121 -3.3184592723846436 L -8.350000381469727 -3.3450000286102295 L -8.928999900817871 -3.6410000324249268 L -9.5 -3.9649999141693115 L -10.0600004196167 -4.188000202178955 L -10.630000114440918 -4.375 L -11.038999557495117 -4.39300012588501 L -11.449999809265137 -4.375 L -11.987000465393066 -4.295000076293945 L -12.288000106811523 -4.238527297973633 L -12.520000457763672 -4.195000171661377 L -13.678999900817871 -3.871999979019165 L -14.84000015258789 -3.575000047683716 L -15.428000450134277 -3.556999921798706 L -16.010000228881836 -3.615000009536743 L -16.384000778198242 -3.7741799354553223 L -16.783000946044922 -3.944000005722046 L -17.085004806518555 -4.0960001945495605 L -17.540000915527344 -4.324999809265137 L -18.43199920654297 -4.864697456359863 L -18.729999542236328 -5.045000076293945 L -19.025999069213867 -5.165999889373779 L -19.329999923706055 -5.255000114440918 L -19.621999740600586 -5.244999885559082 L -19.90999984741211 -5.195000171661377 L -20.479999542236328 -4.927002906799316 L -20.61400032043457 -4.863999843597412 L -21.299999237060547 -4.494999885559082 L -22.67799949645996 -3.565000057220459 L -24.003259658813477 -2.6570229530334473 L -24.049999237060547 -2.625 L -24.511999130249023 -2.3559999465942383 L -24.576000213623047 -2.3181309700012207 L -24.791181564331055 -2.190807580947876 L -24.969999313354492 -2.0850000381469727 L -25.7450008392334 -1.4800000190734863 L -26.530000686645508 -0.8949999809265136 L -27.39699935913086 -0.46799999475479115 L -28.290000915527344 -0.11500000208616246 L -28.672000885009766 -0.09357253462076176 L -28.80699920654297 -0.08600000292062748 L -29.31999969482422 -0.14499999582767475 L -30.1560001373291 -0.5479999780654906 L -30.959999084472656 -1.024999976158142 L -31.834129333496094 -1.7143380641937256 L -32.34600067138672 -2.118000030517578 L -32.768001556396484 -2.472367763519287 L -33.70000076293945 -3.255000114440918 L -34.608001708984375 -4.091000080108643 L -35.459999084472656 -4.965000152587891 L -35.564998626708984 -5.296000003814697 L -35.59000015258789 -5.644999980926514 L -35.44499969482422 -5.961999893188477 L -35.2400016784668 -6.244999885559082 L -34.922000885009766 -6.388000011444092 L -34.58000183105469 -6.474999904632568 L -34.30799865722656 -6.416999816894531 L -34.04999923706055 -6.304999828338623 L -33.1870002746582 -5.517000198364258 L -32.768001556396484 -5.124890327453613 L -32.33000183105469 -4.715000152587891 L -31.051000595092773 -3.6500000953674316 L -29.75 -2.615000009536743 L -29.277999877929688 -2.3450000286102295 L -28.790000915527344 -2.1050000190734863 L -28.725000381469727 -2.0969998836517334 L -28.672000885009766 -2.103523015975952 L -28.65999984741211 -2.1050000190734863 L -28.058000564575195 -2.369999885559082 L -27.73401641845703 -2.532543182373047 L -27.469999313354492 -2.6649999618530273 L -26.870759963989258 -3.123444080352783 L -26.77199935913086 -3.1989998817443848 L -26.079999923706055 -3.744999885559082 L -25.60700035095215 -4.0320000648498535 L -25.1299991607666 -4.315000057220459 L -24.576000213623047 -4.694214820861816 L -23.69099998474121 -5.300000190734863 L -22.239999771118164 -6.264999866485596 L -21.283000946044922 -6.744999885559082 L -20.479999542236328 -7.088092803955078 L -20.299999237060547 -7.164999961853027 L -19.809999465942383 -7.236000061035156 L -19.309999465942383 -7.264999866485596 L -19.099000930786133 -7.25 L -18.889999389648438 -7.215000152587891 L -18.43199920654297 -7.060682773590088 L -18.334999084472656 -7.0279998779296875 L -17.790000915527344 -6.815000057220459 L -17.194000244140625 -6.453000068664551 L -16.600000381469727 -6.085000038146973 L -16.384000778198242 -5.9770002365112305 L -16.055999755859375 -5.813000202178955 L -15.659964561462402 -5.643474102020264 L -15.5 -5.574999809265137 L -15.232000350952148 -5.553999900817871 L -14.960000038146973 -5.574999809265137 L -13.935999870300293 -5.86299991607666 L -12.90999984741211 -6.15500020980835 L -12.288000106811523 -6.270699501037598 L -12.23799991607666 -6.28000020980835 L -11.5600004196167 -6.375 L -10.937999725341797 -6.395999908447266 L -10.319999694824219 -6.364999771118164 L -9.454000473022461 -6.085000038146973 L -8.600000381469727 -5.755000114440918 L -8.192000389099121 -5.525836944580078 L -8.145999908447266 -5.5 L -7.690000057220459 -5.255000114440918 L -7.3520002365112305 -5.196000099182129 L -7.177149772644043 -5.195488929748535 L -7.010000228881836 -5.195000171661377 L -6.046000003814697 -5.561999797821045 L -5.079999923706055 -5.875 L -4.0960001945495605 -5.697695255279541 L -3.9089999198913574 -5.664000034332275 L -2.7300000190734863 -5.40500020980835 L -2.2309999465942383 -5.482999801635742 L -1.7300000190734863 -5.574999809265137 L -0.5460000038146973 -5.480000019073486 L -8.869738541458349e-15 -5.431661128997803 L 0.6399999856948853 -5.375 L 1.8899999856948853 -5.334000110626221 L 3.130000114440918 -5.375 L 4.0960001945495605 -5.716032981872559 L 4.364999771118164 -5.810999870300293 L 4.880825042724609 -6.006381988525391 L 5.590000152587891 -6.275000095367432 L 5.816999912261963 -6.229000091552734 L 5.941149711608887 -6.1766676902771 L 6.039999961853027 -6.135000228881836 L 6.433000087738037 -5.888000011444092 L 6.829999923706055 -5.65500020980835 L 7.124000072479248 -5.6020002365112305 L 7.420000076293945 -5.605000019073486 L 7.953000068664551 -5.863999843597412 L 8.192000389099121 -5.980162143707275 L 8.489999771118164 -6.125 L 8.871708869934082 -6.1894211769104 L 9.12399959564209 -6.23199987411499 L 9.503466606140137 -6.251689434051514 L 9.760000228881836 -6.264999866485596 L 10.236000061035156 -6.066999912261963 L 10.710000038146973 -5.835000038146973 L 11.097999572753906 -5.701000213623047 L 11.489999771118164 -5.614999771118164 L 11.977999687194824 -5.728000164031982 L 12.288000106811523 -5.83540678024292 L 12.460000038146973 -5.894999980926514 L 12.99899959564209 -6.201000213623047 L 13.539999961853027 -6.465000152587891 L 14.095999717712402 -6.39900016784668 L 14.453475952148438 -6.2996296882629395 L 14.649999618530273 -6.244999885559082 L 15.498000144958496 -5.760000228881836 L 15.688323020935059 -5.6616740226745605 L 16.10004234313965 -5.448968410491943 L 16.34000015258789 -5.324999809265137 L 16.384000778198242 -5.341256141662598 L 16.746000289916992 -5.474999904632568 L 17.15999984741211 -5.675000190734863 L 17.43899917602539 -5.644999980926514 L 17.709999084472656 -5.565000057220459 L 17.924999237060547 -5.386000156402588 L 18.110000610351562 -5.175000190734863 L 18.201000213623047 -4.909999847412109 M 59.380001068115234 12.239999771118164 L 59.37909698486328 12.288000106811523 L 59.375999450683594 12.45300006866455 L 59.36199951171875 12.663999557495117 L 59.34000015258789 12.875 L 59.308998107910156 13.083999633789062 L 59.26900100708008 13.293000221252441 L 59.220001220703125 13.5 L 59.167999267578125 13.70199966430664 L 59.106998443603516 13.906999588012695 L 59.03499984741211 14.114999771118164 L 58.952999114990234 14.32699966430664 L 58.94919204711914 14.336000442504883 L 58.86199951171875 14.541999816894531 L 58.7599983215332 14.760000228881836 L 58.64099884033203 14.97599983215332 L 58.51100158691406 15.196000099182129 L 58.369998931884766 15.420000076293945 L 58.21799850463867 15.64900016784668 L 58.05400085449219 15.881999969482422 L 57.880001068115234 16.1200008392334 L 57.69300079345703 16.3700008392334 L 57.6819953918457 16.384000778198242 L 57.49100112915039 16.62700080871582 L 57.34400177001953 16.805986404418945 L 57.275001525878906 16.889999389648438 L 57.04399871826172 17.15999984741211 L 56.79899978637695 17.437000274658203 L 56.540000915527344 17.719999313354492 L 56.26599884033203 18.01799964904785 L 55.97600173950195 18.32699966430664 L 55.874961853027344 18.43199920654297 L 55.66999816894531 18.645000457763672 L 55.3489990234375 18.972999572753906 L 55.088829040527344 19.23471450805664 L 55.012001037597656 19.312000274658203 L 54.65999984741211 19.65999984741211 L 54.297000885009766 20.020000457763672 L 53.91600036621094 20.39299964904785 L 53.82585144042969 20.479999542236328 L 53.51499938964844 20.780000686645508 L 53.09600067138672 21.18000030517578 L 52.65700149536133 21.593000411987305 L 52.20000076293945 22.020000457763672 L 49.508453369140625 24.576000213623047 L 49.41999816894531 24.65999984741211 L 55.900001525878906 24.65999984741211 L 56.17399978637695 24.64699935913086 L 56.43600082397461 24.60700035095215 L 56.55120849609375 24.576000213623047 L 56.685001373291016 24.540000915527344 L 56.922000885009766 24.44700050354004 L 57.14699935913086 24.32699966430664 L 57.34400177001953 24.191041946411133 L 57.36000061035156 24.18000030517578 L 57.54999923706055 24.000999450683594 L 57.720001220703125 23.79800033569336 L 57.869998931884766 23.56999969482422 L 58 23.31800079345703 L 58.11000061035156 23.041000366210938 L 58.20000076293945 22.739999771118164 L 58.439998626708984 21.899999618530273 L 60 21.899999618530273 L 60 24.576000213623047 L 60 27.719999313354492 L 49.152000427246094 27.719999313354492 L 46.79999923706055 27.719999313354492 L 46.79999923706055 24.860000610351562 L 47.07856369018555 24.576000213623047 L 49.152000427246094 22.462106704711914 L 50.900001525878906 20.68000030517578 L 51.091224670410156 20.479999542236328 L 51.31399917602539 20.246999740600586 L 51.70399856567383 19.82900047302246 L 52.06999969482422 19.424999237060547 L 52.4109992980957 19.035999298095703 L 52.72800064086914 18.660999298095703 L 53.02000045776367 18.299999237060547 L 53.24800109863281 18.002044677734375 L 53.284000396728516 17.954999923706055 L 53.52899932861328 17.613000869750977 L 53.755001068115234 17.274999618530273 L 53.96200180053711 16.940000534057617 L 54.1510009765625 16.607999801635742 L 54.266414642333984 16.384000778198242 L 54.31999969482422 16.280000686645508 L 54.47200012207031 15.961000442504883 L 54.606998443603516 15.642000198364258 L 54.724998474121094 15.324999809265137 L 54.82699966430664 15.008999824523926 L 54.9119987487793 14.694000244140625 L 54.97999954223633 14.380000114440918 L 55.04100036621094 14.062999725341797 L 55.090999603271484 13.739999771118164 L 55.130001068115234 13.40999984741211 L 55.15800094604492 13.072999954223633 L 55.17399978637695 12.729999542236328 L 55.18000030517578 12.380000114440918 L 55.17707443237305 12.288000106811523 L 55.16400146484375 11.876999855041504 L 55.11600112915039 11.420000076293945 L 55.03499984741211 11.010000228881836 L 54.922000885009766 10.647000312805176 L 54.777000427246094 10.329999923706055 L 54.599998474121094 10.0600004196167 L 54.39400100708008 9.833999633789062 L 54.16400146484375 9.64900016784668 L 53.90999984741211 9.505000114440918 L 53.63100051879883 9.402000427246094 L 53.327999114990234 9.340999603271484 L 53.24800109863281 9.335878372192383 L 53 9.319999694824219 L 52.55099868774414 9.354000091552734 L 52.14899826049805 9.456000328063965 L 51.79499816894531 9.625 L 51.48899841308594 9.862000465393066 L 51.23099899291992 10.166999816894531 L 51.02000045776367 10.539999961853027 L 50.8489990234375 10.977999687194824 L 50.70899963378906 11.479999542236328 L 50.599998474121094 12.045000076293945 L 50.56981658935547 12.288000106811523 L 50.52199935913086 12.67300033569336 L 50.47600173950195 13.364999771118164 L 50.459999084472656 14.119999885559082 L 50.196998596191406 14.116000175476074 L 49.94200134277344 14.104000091552734 L 49.69499969482422 14.085000038146973 L 49.45600128173828 14.057999610900879 L 49.2239990234375 14.02299976348877 L 49.152000427246094 14.009178161621094 L 49 13.979999542236328 L 48.7859992980957 13.92199993133545 L 48.582000732421875 13.855999946594238 L 48.38999938964844 13.779999732971191 L 48.20899963378906 13.696000099182129 L 48.03900146484375 13.60200023651123 L 47.880001068115234 13.5 L 47.72600173950195 13.387999534606934 L 47.58399963378906 13.263999938964844 L 47.45500183105469 13.130000114440918 L 47.3380012512207 12.984000205993652 L 47.233001708984375 12.82800006866455 L 47.13999938964844 12.65999984741211 L 47.06700134277344 12.479999542236328 L 47.0073127746582 12.288000106811523 L 47.00699996948242 12.286999702453613 L 46.959999084472656 12.079999923706055 L 46.926998138427734 11.859999656677246 L 46.90700149536133 11.626999855041504 L 46.900001525878906 11.380000114440918 L 46.9109992980957 11.128999710083008 L 46.94200134277344 10.881999969482422 L 46.994998931884766 10.640000343322754 L 47.069000244140625 10.402000427246094 L 47.13505172729492 10.239999771118164 L 47.16400146484375 10.168999671936035 L 47.279998779296875 9.9399995803833 L 47.41699981689453 9.718000411987305 L 47.57600021362305 9.506999969482422 L 47.755001068115234 9.305000305175781 L 47.95600128173828 9.11299991607666 L 48.176998138427734 8.932000160217285 L 48.41999816894531 8.760000228881836 L 48.683998107910156 8.593000411987305 L 48.97100067138672 8.437999725341797 L 49.152000427246094 8.354236602783203 L 49.279998779296875 8.295000076293945 L 49.540252685546875 8.192000389099121 L 49.611000061035156 8.163999557495117 L 49.9640007019043 8.045999526977539 L 50.34000015258789 7.940000057220459 L 50.73099899291992 7.8420000076293945 L 51.141998291015625 7.76200008392334 L 51.57500076293945 7.699999809265137 L 52.02899932861328 7.656000137329102 L 52.50400161743164 7.629000186920166 L 53 7.619999885559082 L 53.24800109863281 7.62437629699707 L 53.5099983215332 7.629000186920166 L 54 7.656000137329102 L 54.470001220703125 7.699999809265137 L 54.91999816894531 7.76200008392334 L 55.349998474121094 7.8420000076293945 L 55.7599983215332 7.940000057220459 L 56.143001556396484 8.053999900817871 L 56.50400161743164 8.184000015258789 L 56.52268600463867 8.192000389099121 L 56.845001220703125 8.329999923706055 L 57.16400146484375 8.491000175476074 L 57.34400177001953 8.597555160522461 L 57.4630012512207 8.668000221252441 L 57.7400016784668 8.859999656677246 L 58.00199890136719 9.067000389099121 L 58.2400016784668 9.288999557495117 L 58.45500183105469 9.524999618530273 L 58.64699935913086 9.776000022888184 L 58.814998626708984 10.041000366210938 L 58.959999084472656 10.319999694824219 L 59.0880012512207 10.607000350952148 L 59.19300079345703 10.906999588012695 L 59.275001525878906 11.220000267028809 L 59.33300018310547 11.54699993133545 L 59.36800003051758 11.88700008392334 L 59.380001068115234 12.239999771118164 M 40.9640007019043 8.184000015258789 L 40.98268508911133 8.192000389099121 L 41.30500030517578 8.329999923706055 L 41.624000549316406 8.491000175476074 L 41.92300033569336 8.668000221252441 L 42.20000076293945 8.859999656677246 L 42.46200180053711 9.067000389099121 L 42.70000076293945 9.288999557495117 L 42.915000915527344 9.524999618530273 L 43.106998443603516 9.776000022888184 L 43.275001525878906 10.041000366210938 L 43.378421783447266 10.239999771118164 L 43.41999816894531 10.319999694824219 L 43.54800033569336 10.607000350952148 L 43.65299987792969 10.906999588012695 L 43.73500061035156 11.220000267028809 L 43.792999267578125 11.54699993133545 L 43.827999114990234 11.88700008392334 L 43.84000015258789 12.239999771118164 L 43.8390998840332 12.288000106811523 L 43.83599853515625 12.45300006866455 L 43.821998596191406 12.663999557495117 L 43.79999923706055 12.875 L 43.76900100708008 13.083999633789062 L 43.729000091552734 13.293000221252441 L 43.68000030517578 13.5 L 43.62799835205078 13.70199966430664 L 43.56700134277344 13.906999588012695 L 43.494998931884766 14.114999771118164 L 43.41299819946289 14.32699966430664 L 43.4091911315918 14.336000442504883 L 43.321998596191406 14.541999816894531 L 43.220001220703125 14.760000228881836 L 43.10100173950195 14.97599983215332 L 42.97100067138672 15.196000099182129 L 42.83000183105469 15.420000076293945 L 42.678001403808594 15.64900016784668 L 42.513999938964844 15.881999969482422 L 42.34000015258789 16.1200008392334 L 42.15299987792969 16.3700008392334 L 42.14199447631836 16.384000778198242 L 41.95100021362305 16.62700080871582 L 41.73500061035156 16.889999389648438 L 41.50400161743164 17.15999984741211 L 41.25899887084961 17.437000274658203 L 41 17.719999313354492 L 40.959999084472656 17.763504028320312 L 40.72600173950195 18.01799964904785 L 40.43600082397461 18.32699966430664 L 40.3349609375 18.43199920654297 L 40.130001068115234 18.645000457763672 L 39.808998107910156 18.972999572753906 L 39.548828125 19.23471450805664 L 39.47200012207031 19.312000274658203 L 39.119998931884766 19.65999984741211 L 38.75699996948242 20.020000457763672 L 38.375999450683594 20.39299964904785 L 38.28585433959961 20.479999542236328 L 37.974998474121094 20.780000686645508 L 37.555999755859375 21.18000030517578 L 37.117000579833984 21.593000411987305 L 36.65999984741211 22.020000457763672 L 33.96845626831055 24.576000213623047 L 33.880001068115234 24.65999984741211 L 40.36000061035156 24.65999984741211 L 40.63399887084961 24.64699935913086 L 40.895999908447266 24.60700035095215 L 40.959999084472656 24.589778900146484 L 41.011207580566406 24.576000213623047 L 41.14500045776367 24.540000915527344 L 41.38199996948242 24.44700050354004 L 41.606998443603516 24.32699966430664 L 41.81999969482422 24.18000030517578 L 42.0099983215332 24.000999450683594 L 42.18000030517578 23.79800033569336 L 42.33000183105469 23.56999969482422 L 42.459999084472656 23.31800079345703 L 42.56999969482422 23.041000366210938 L 42.65999984741211 22.739999771118164 L 42.900001525878906 21.899999618530273 L 44.459999084472656 21.899999618530273 L 44.459999084472656 24.576000213623047 L 44.459999084472656 27.24565887451172 L 44.459999084472656 27.719999313354492 L 40.959999084472656 27.719999313354492 L 32.768001556396484 27.719999313354492 L 31.260000228881836 27.719999313354492 L 31.260000228881836 25.858339309692383 L 31.260000228881836 25.19025230407715 L 31.260000228881836 24.860000610351562 L 31.538564682006836 24.576000213623047 L 32.768001556396484 23.32257652282715 L 35.36000061035156 20.68000030517578 L 35.55122375488281 20.479999542236328 L 35.77399826049805 20.246999740600586 L 36.16400146484375 19.82900047302246 L 36.529998779296875 19.424999237060547 L 36.86399841308594 19.04398536682129 L 36.87099838256836 19.035999298095703 L 37.1879997253418 18.660999298095703 L 37.37322998046875 18.43199920654297 L 37.47999954223633 18.299999237060547 L 37.74399948120117 17.954999923706055 L 37.98899841308594 17.613000869750977 L 38.21500015258789 17.274999618530273 L 38.422000885009766 16.940000534057617 L 38.611000061035156 16.607999801635742 L 38.72641372680664 16.384000778198242 L 38.779998779296875 16.280000686645508 L 38.93199920654297 15.961000442504883 L 39.06700134277344 15.642000198364258 L 39.185001373291016 15.324999809265137 L 39.2869987487793 15.008999824523926 L 39.37200164794922 14.694000244140625 L 39.439998626708984 14.380000114440918 L 39.500999450683594 14.062999725341797 L 39.55099868774414 13.739999771118164 L 39.59000015258789 13.40999984741211 L 39.61800003051758 13.072999954223633 L 39.63399887084961 12.729999542236328 L 39.63999938964844 12.380000114440918 L 39.6370735168457 12.288000106811523 L 39.624000549316406 11.876999855041504 L 39.57600021362305 11.420000076293945 L 39.494998931884766 11.010000228881836 L 39.38199996948242 10.647000312805176 L 39.23699951171875 10.329999923706055 L 39.060001373291016 10.0600004196167 L 38.854000091552734 9.833999633789062 L 38.624000549316406 9.64900016784668 L 38.369998931884766 9.505000114440918 L 38.090999603271484 9.402000427246094 L 37.78799819946289 9.340999603271484 L 37.459999084472656 9.319999694824219 L 37.01100158691406 9.354000091552734 L 36.86399841308594 9.391298294067383 L 36.60900115966797 9.456000328063965 L 36.255001068115234 9.625 L 35.94900131225586 9.862000465393066 L 35.691001892089844 10.166999816894531 L 35.47999954223633 10.539999961853027 L 35.308998107910156 10.977999687194824 L 35.16899871826172 11.479999542236328 L 35.060001373291016 12.045000076293945 L 35.02981948852539 12.288000106811523 L 34.981998443603516 12.67300033569336 L 34.93600082397461 13.364999771118164 L 34.91999816894531 14.119999885559082 L 34.65700149536133 14.116000175476074 L 34.402000427246094 14.104000091552734 L 34.154998779296875 14.085000038146973 L 33.91600036621094 14.057999610900879 L 33.683998107910156 14.02299976348877 L 33.459999084472656 13.979999542236328 L 33.24599838256836 13.92199993133545 L 33.04199981689453 13.855999946594238 L 32.849998474121094 13.779999732971191 L 32.768001556396484 13.741944313049316 L 32.66899871826172 13.696000099182129 L 32.499000549316406 13.60200023651123 L 32.34000015258789 13.5 L 32.18600082397461 13.387999534606934 L 32.04399871826172 13.263999938964844 L 31.915000915527344 13.130000114440918 L 31.79800033569336 12.984000205993652 L 31.69300079345703 12.82800006866455 L 31.600000381469727 12.65999984741211 L 31.527000427246094 12.479999542236328 L 31.467309951782227 12.288000106811523 L 31.466999053955078 12.286999702453613 L 31.420000076293945 12.079999923706055 L 31.386999130249023 11.859999656677246 L 31.367000579833984 11.626999855041504 L 31.360000610351562 11.380000114440918 L 31.371000289916992 11.128999710083008 L 31.402000427246094 10.881999969482422 L 31.454999923706055 10.640000343322754 L 31.52899932861328 10.402000427246094 L 31.595050811767578 10.239999771118164 L 31.624000549316406 10.168999671936035 L 31.739999771118164 9.9399995803833 L 31.87700080871582 9.718000411987305 L 32.0359992980957 9.506999969482422 L 32.21500015258789 9.305000305175781 L 32.41600036621094 9.11299991607666 L 32.637001037597656 8.932000160217285 L 32.768001556396484 8.839275360107422 L 32.880001068115234 8.760000228881836 L 33.14400100708008 8.593000411987305 L 33.430999755859375 8.437999725341797 L 33.7400016784668 8.295000076293945 L 34.00025177001953 8.192000389099121 L 34.07099914550781 8.163999557495117 L 34.42399978637695 8.045999526977539 L 34.79999923706055 7.940000057220459 L 35.191001892089844 7.8420000076293945 L 35.60200119018555 7.76200008392334 L 36.03499984741211 7.699999809265137 L 36.48899841308594 7.656000137329102 L 36.86399841308594 7.634684085845947 L 36.9640007019043 7.629000186920166 L 37.459999084472656 7.619999885559082 L 37.970001220703125 7.629000186920166 L 38.459999084472656 7.656000137329102 L 38.93000030517578 7.699999809265137 L 39.380001068115234 7.76200008392334 L 39.810001373291016 7.8420000076293945 L 40.220001220703125 7.940000057220459 L 40.60300064086914 8.053999900817871 L 40.959999084472656 8.182559967041016 L 40.9640007019043 8.184000015258789 M 25.159000396728516 8.119999885559082 L 25.303327560424805 8.192000389099121 L 25.600000381469727 8.34000015258789 L 26.020000457763672 8.597000122070312 L 26.413000106811523 8.888999938964844 L 26.780000686645508 9.21500015258789 L 27.1200008392334 9.576000213623047 L 27.433000564575195 9.970999717712402 L 27.719999313354492 10.399999618530273 L 27.981000900268555 10.855999946594238 L 28.218000411987305 11.342000007629395 L 28.43000030517578 11.859999656677246 L 28.57656478881836 12.288000106811523 L 28.618000030517578 12.409000396728516 L 28.672000885009766 12.601147651672363 L 28.7810001373291 12.98900032043457 L 28.920000076293945 13.600000381469727 L 29.035999298095703 14.23900032043457 L 29.049898147583008 14.336000442504883 L 29.131000518798828 14.902000427246094 L 29.204999923706055 15.59000015258789 L 29.257999420166016 16.302000045776367 L 29.261449813842773 16.384000778198242 L 29.288999557495117 17.038999557495117 L 29.299999237060547 17.799999237060547 L 29.288999557495117 18.55500030517578 L 29.257999420166016 19.28700065612793 L 29.204999923706055 19.9950008392334 L 29.152605056762695 20.479999542236328 L 29.131000518798828 20.68000030517578 L 29.035999298095703 21.341999053955078 L 28.920000076293945 21.979999542236328 L 28.7810001373291 22.591999053955078 L 28.672000885009766 22.975812911987305 L 28.615999221801758 23.17300033569336 L 28.424999237060547 23.725000381469727 L 28.208999633789062 24.246999740600586 L 28.046844482421875 24.576000213623047 L 27.966999053955078 24.738000869750977 L 27.700000762939453 25.200000762939453 L 27.413999557495117 25.6299991607666 L 27.101999282836914 26.027000427246094 L 26.764999389648438 26.389999389648438 L 26.402000427246094 26.719999313354492 L 26.013999938964844 27.017000198364258 L 25.600000381469727 27.280000686645508 L 25.152000427246094 27.5 L 24.676000595092773 27.68000030517578 L 24.576000213623047 27.70766830444336 L 24.170000076293945 27.81999969482422 L 23.63599967956543 27.920000076293945 L 23.163576126098633 27.970258712768555 L 23.07200050354004 27.979999542236328 L 22.9007625579834 27.98578453063965 L 22.615585327148438 27.995418548583984 L 22.527999877929688 27.99837875366211 L 22.479999542236328 28 L 21.863000869750977 27.979999542236328 L 21.280000686645508 27.920000076293945 L 20.729999542236328 27.81999969482422 L 20.479999542236328 27.752302169799805 L 20.21299934387207 27.68000030517578 L 19.729999542236328 27.5 L 19.280000686645508 27.280000686645508 L 18.861000061035156 27.017000198364258 L 18.4689998626709 26.719999313354492 L 18.104999542236328 26.389999389648438 L 17.768999099731445 26.027000427246094 L 17.461000442504883 25.6299991607666 L 17.18000030517578 25.200000762939453 L 16.926000595092773 24.738000869750977 L 16.850574493408203 24.576000213623047 L 16.695999145507812 24.243999481201172 L 16.489999771118164 23.719999313354492 L 16.384000778198242 23.394386291503906 L 16.30900001525879 23.163999557495117 L 16.152000427246094 22.577999114990234 L 16.020000457763672 21.959999084472656 L 15.916000366210938 21.32200050354004 L 15.831000328063965 20.65999984741211 L 15.8136568069458 20.479999542236328 L 15.765000343322754 19.975000381469727 L 15.718000411987305 19.267000198364258 L 15.689000129699707 18.53499984741211 L 15.680000305175781 17.780000686645508 L 15.689000129699707 17.018999099731445 L 15.714054107666016 16.384000778198242 L 15.718000411987305 16.284000396728516 L 15.765000343322754 15.574999809265137 L 15.831000328063965 14.890999794006348 L 15.902694702148438 14.336000442504883 L 15.916000366210938 14.232999801635742 L 16.020000457763672 13.600000381469727 L 16.152000427246094 12.98900032043457 L 16.30900001525879 12.409000396728516 L 16.348892211914062 12.288000106811523 L 16.384000778198242 12.181513786315918 L 16.489999771118164 11.859999656677246 L 16.695999145507812 11.342000007629395 L 16.926000595092773 10.855999946594238 L 17.18000030517578 10.399999618530273 L 17.461000442504883 9.970999717712402 L 17.770999908447266 9.576000213623047 L 18.110000610351562 9.21500015258789 L 18.47800064086914 8.888999938964844 L 18.874000549316406 8.597000122070312 L 19.299999237060547 8.34000015258789 L 19.6033992767334 8.192000389099121 L 19.750999450683594 8.119999885559082 L 20.236000061035156 7.940000057220459 L 20.7549991607666 7.800000190734863 L 21.30900001525879 7.699999809265137 L 21.89699935913086 7.639999866485596 L 22.520000457763672 7.619999885559082 L 23.106000900268555 7.639999866485596 L 23.66200065612793 7.699999809265137 L 24.190000534057617 7.800000190734863 L 24.576000213623047 7.908296585083008 L 24.68899917602539 7.940000057220459 L 25.159000396728516 8.119999885559082 M 9.140000343322754 7.940000057220459 L 9.52299976348877 8.053999900817871 L 9.883999824523926 8.184000015258789 L 9.902685165405273 8.192000389099121 L 10.225000381469727 8.329999923706055 L 10.543999671936035 8.491000175476074 L 10.843000411987305 8.668000221252441 L 11.119999885559082 8.859999656677246 L 11.381999969482422 9.067000389099121 L 11.619999885559082 9.288999557495117 L 11.835000038146973 9.524999618530273 L 12.027000427246094 9.776000022888184 L 12.194999694824219 10.041000366210938 L 12.288000106811523 10.219944953918457 L 12.34000015258789 10.319999694824219 L 12.468000411987305 10.607000350952148 L 12.572999954223633 10.906999588012695 L 12.654999732971191 11.220000267028809 L 12.713000297546387 11.54699993133545 L 12.748000144958496 11.88700008392334 L 12.760000228881836 12.239999771118164 L 12.759099006652832 12.288000106811523 L 12.755999565124512 12.45300006866455 L 12.741999626159668 12.663999557495117 L 12.720000267028809 12.875 L 12.689000129699707 13.083999633789062 L 12.64900016784668 13.293000221252441 L 12.600000381469727 13.5 L 12.54800033569336 13.70199966430664 L 12.487000465393066 13.906999588012695 L 12.414999961853027 14.114999771118164 L 12.333000183105469 14.32699966430664 L 12.329190254211426 14.336000442504883 L 12.288000106811523 14.433319091796875 L 12.241999626159668 14.541999816894531 L 12.140000343322754 14.760000228881836 L 12.020999908447266 14.97599983215332 L 11.890999794006348 15.196000099182129 L 11.75 15.420000076293945 L 11.597999572753906 15.64900016784668 L 11.434000015258789 15.881999969482422 L 11.260000228881836 16.1200008392334 L 11.072999954223633 16.3700008392334 L 11.061996459960938 16.384000778198242 L 10.871000289916992 16.62700080871582 L 10.654999732971191 16.889999389648438 L 10.423999786376953 17.15999984741211 L 10.178999900817871 17.437000274658203 L 9.920000076293945 17.719999313354492 L 9.645999908447266 18.01799964904785 L 9.355999946594238 18.32699966430664 L 9.050000190734863 18.645000457763672 L 8.729000091552734 18.972999572753906 L 8.392000198364258 19.312000274658203 L 8.192000389099121 19.509727478027344 L 8.039999961853027 19.65999984741211 L 7.677000045776367 20.020000457763672 L 7.296000003814697 20.39299964904785 L 7.205852508544922 20.479999542236328 L 6.894999980926514 20.780000686645508 L 6.47599983215332 21.18000030517578 L 6.0370001792907715 21.593000411987305 L 5.579999923706055 22.020000457763672 L 2.8884544372558594 24.576000213623047 L 2.799999952316284 24.65999984741211 L 8.192000389099121 24.65999984741211 L 9.279999732971191 24.65999984741211 L 9.553999900817871 24.64699935913086 L 9.815999984741211 24.60700035095215 L 9.931208610534668 24.576000213623047 L 10.0649995803833 24.540000915527344 L 10.302000045776367 24.44700050354004 L 10.527000427246094 24.32699966430664 L 10.739999771118164 24.18000030517578 L 10.930000305175781 24.000999450683594 L 11.100000381469727 23.79800033569336 L 11.25 23.56999969482422 L 11.380000114440918 23.31800079345703 L 11.489999771118164 23.041000366210938 L 11.579999923706055 22.739999771118164 L 11.819999694824219 21.899999618530273 L 12.288000106811523 21.899999618530273 L 13.380000114440918 21.899999618530273 L 13.380000114440918 24.576000213623047 L 13.380000114440918 27.719999313354492 L 8.192000389099121 27.719999313354492 L 0.18000000715255737 27.719999313354492 L 0.18000000715255737 24.860000610351562 L 0.3761722445487976 24.65999984741211 L 0.4585645794868469 24.576000213623047 L 4.28000020980835 20.68000030517578 L 4.471223831176758 20.479999542236328 L 4.693999767303467 20.246999740600586 L 5.084000110626221 19.82900047302246 L 5.449999809265137 19.424999237060547 L 5.790999889373779 19.035999298095703 L 6.107999801635742 18.660999298095703 L 6.400000095367432 18.299999237060547 L 6.664000034332275 17.954999923706055 L 6.908999919891357 17.613000869750977 L 7.135000228881836 17.274999618530273 L 7.3420000076293945 16.940000534057617 L 7.531000137329102 16.607999801635742 L 7.646414756774902 16.384000778198242 L 7.699999809265137 16.280000686645508 L 7.8520002365112305 15.961000442504883 L 7.986999988555908 15.642000198364258 L 8.104999542236328 15.324999809265137 L 8.192000389099121 15.05547046661377 L 8.206999778747559 15.008999824523926 L 8.291999816894531 14.694000244140625 L 8.359999656677246 14.380000114440918 L 8.368467330932617 14.336000442504883 L 8.420999526977539 14.062999725341797 L 8.470999717712402 13.739999771118164 L 8.510000228881836 13.40999984741211 L 8.538000106811523 13.072999954223633 L 8.553999900817871 12.729999542236328 L 8.5600004196167 12.380000114440918 L 8.557073593139648 12.288000106811523 L 8.543999671936035 11.876999855041504 L 8.496000289916992 11.420000076293945 L 8.414999961853027 11.010000228881836 L 8.302000045776367 10.647000312805176 L 8.192000389099121 10.406517028808594 L 8.156999588012695 10.329999923706055 L 8.097999572753906 10.239999771118164 L 7.980000019073486 10.0600004196167 L 7.77400016784668 9.833999633789062 L 7.544000148773193 9.64900016784668 L 7.289999961853027 9.505000114440918 L 7.011000156402588 9.402000427246094 L 6.708000183105469 9.340999603271484 L 6.380000114440918 9.319999694824219 L 5.931000232696533 9.354000091552734 L 5.5289998054504395 9.456000328063965 L 5.175000190734863 9.625 L 4.86899995803833 9.862000465393066 L 4.611000061035156 10.166999816894531 L 4.569705009460449 10.239999771118164 L 4.400000095367432 10.539999961853027 L 4.229000091552734 10.977999687194824 L 4.0960001945495605 11.454899787902832 L 4.089000225067139 11.479999542236328 L 3.9800000190734863 12.045000076293945 L 3.9498183727264404 12.288000106811523 L 3.9019999504089355 12.67300033569336 L 3.8559999465942383 13.364999771118164 L 3.8399999141693115 14.119999885559082 L 3.5769999027252197 14.116000175476074 L 3.322000026702881 14.104000091552734 L 3.075000047683716 14.085000038146973 L 2.8359999656677246 14.057999610900879 L 2.6040000915527344 14.02299976348877 L 2.380000114440918 13.979999542236328 L 2.1659998893737793 13.92199993133545 L 2.0480000972747803 13.88382339477539 L 1.9620000123977661 13.855999946594238 L 1.7699999809265137 13.779999732971191 L 1.5889999866485596 13.696000099182129 L 1.4190000295639038 13.60200023651123 L 1.2599999904632568 13.5 L 1.1059999465942383 13.387999534606934 L 0.9639999866485596 13.263999938964844 L 0.8349999785423279 13.130000114440918 L 0.7179999947547913 12.984000205993652 L 0.6129999756813049 12.82800006866455 L 0.5199999809265137 12.65999984741211 L 0.44699999690055847 12.479999542236328 L 0.3873108923435211 12.288000106811523 L 0.3869999945163727 12.286999702453613 L 0.3400000035762787 12.079999923706055 L 0.3070000112056732 11.859999656677246 L 0.28700000047683716 11.626999855041504 L 0.2800000011920929 11.380000114440918 L 0.29100000858306885 11.128999710083008 L 0.32199999690055847 10.881999969482422 L 0.375 10.640000343322754 L 0.4490000009536743 10.402000427246094 L 0.5150514841079712 10.239999771118164 L 0.5440000295639038 10.168999671936035 L 0.6600000262260437 9.9399995803833 L 0.796999990940094 9.718000411987305 L 0.9559999704360962 9.506999969482422 L 1.1349999904632568 9.305000305175781 L 1.3359999656677246 9.11299991607666 L 1.5570000410079956 8.932000160217285 L 1.7999999523162842 8.760000228881836 L 2.063999891281128 8.593000411987305 L 2.3510000705718994 8.437999725341797 L 2.6600000858306885 8.295000076293945 L 2.9202518463134766 8.192000389099121 L 2.990999937057495 8.163999557495117 L 3.3440001010894775 8.045999526977539 L 3.7200000286102295 7.940000057220459 L 4.111000061035156 7.8420000076293945 L 4.521999835968018 7.76200008392334 L 4.954999923706055 7.699999809265137 L 5.408999919891357 7.656000137329102 L 5.883999824523926 7.629000186920166 L 6.380000114440918 7.619999885559082 L 6.889999866485596 7.629000186920166 L 7.380000114440918 7.656000137329102 L 7.849999904632568 7.699999809265137 L 8.192000389099121 7.747119903564453 L 8.300000190734863 7.76200008392334 L 8.729999542236328 7.8420000076293945 L 9.140000343322754 7.940000057220459 M -10.15999984741211 13.300000190734863 L -10.277674674987793 12.288000106811523 L -10.359999656677246 11.579999923706055 L -10.381999969482422 11.428999900817871 L -10.406999588012695 11.281999588012695 L -10.4350004196167 11.140000343322754 L -10.467000007629395 11.001999855041504 L -10.501999855041504 10.869000434875488 L -10.539999961853027 10.739999771118164 L -10.583999633789062 10.623000144958496 L -10.637999534606934 10.512999534606934 L -10.699999809265137 10.40999984741211 L -10.770999908447266 10.312999725341797 L -10.835888862609863 10.239999771118164 L -10.85099983215332 10.222999572753906 L -10.9399995803833 10.140000343322754 L -11.031000137329102 10.057000160217285 L -11.130999565124512 9.979999542236328 L -11.239999771118164 9.90999984741211 L -11.357999801635742 9.847000122070312 L -11.484000205993652 9.789999961853027 L -11.619999885559082 9.739999771118164 L -11.765999794006348 9.696999549865723 L -11.92199993133545 9.661999702453613 L -12.09000015258789 9.635000228881836 L -12.269000053405762 9.616000175476074 L -12.288000106811523 9.614800453186035 L -12.458999633789062 9.604000091552734 L -12.65999984741211 9.600000381469727 L -14.880000114440918 9.600000381469727 L -14.880000114440918 12.288000106811523 L -14.880000114440918 16.384000778198242 L -14.880000114440918 24.440000534057617 L -14.877885818481445 24.576000213623047 L -14.876999855041504 24.632999420166016 L -14.869000434875488 24.812999725341797 L -14.854999542236328 24.979999542236328 L -14.836000442504883 25.132999420166016 L -14.810999870300293 25.273000717163086 L -14.779999732971191 25.399999618530273 L -14.744000434875488 25.509000778198242 L -14.70199966430664 25.611000061035156 L -14.654999732971191 25.704999923706055 L -14.60200023651123 25.791000366210938 L -14.543999671936035 25.868999481201172 L -14.479999542236328 25.940000534057617 L -14.411999702453613 25.996999740600586 L -14.34000015258789 26.047000885009766 L -14.336000442504883 26.049293518066406 L -14.265000343322754 26.09000015258789 L -14.187000274658203 26.12700080871582 L -14.104999542236328 26.156999588012695 L -14.020000457763672 26.18000030517578 L -13.932000160217285 26.197999954223633 L -13.842000007629395 26.21299934387207 L -13.75 26.225000381469727 L -13.656000137329102 26.232999801635742 L -13.559000015258789 26.238000869750977 L -13.460000038146973 26.239999771118164 L -12.288000106811523 26.239999771118164 L -12.279999732971191 26.239999771118164 L -12.279999732971191 27.719999313354492 L -12.288000106811523 27.719999313354492 L -14.336000442504883 27.719999313354492 L -16.384000778198242 27.719999313354492 L -18.43199920654297 27.719999313354492 L -20.479999542236328 27.719999313354492 L -21.8799991607666 27.719999313354492 L -21.8799991607666 26.34459114074707 L -21.8799991607666 26.300010681152344 L -21.8799991607666 26.262094497680664 L -21.8799991607666 26.239999771118164 L -20.719999313354492 26.239999771118164 L -20.614999771118164 26.238000869750977 L -20.51300048828125 26.232999801635742 L -20.479999542236328 26.23030662536621 L -20.415000915527344 26.225000381469727 L -20.31999969482422 26.21299934387207 L -20.22800064086914 26.197999954223633 L -20.139999389648438 26.18000030517578 L -20.055999755859375 26.156999588012695 L -19.97599983215332 26.12700080871582 L -19.899999618530273 26.09000015258789 L -19.82900047302246 26.047000885009766 L -19.761999130249023 25.996999740600586 L -19.700000762939453 25.940000534057617 L -19.63599967956543 25.868999481201172 L -19.577999114990234 25.791000366210938 L -19.524999618530273 25.704999923706055 L -19.47800064086914 25.611000061035156 L -19.47347068786621 25.600000381469727 L -19.43600082397461 25.509000778198242 L -19.399999618530273 25.399999618530273 L -19.363000869750977 25.273000717163086 L -19.33300018310547 25.132999420166016 L -19.309999465942383 24.979999542236328 L -19.292999267578125 24.812999725341797 L -19.283000946044922 24.632999420166016 L -19.282114028930664 24.576000213623047 L -19.280000686645508 24.440000534057617 L -19.280000686645508 16.384000778198242 L -19.280000686645508 13.300000190734863 L -19.280000686645508 12.288000106811523 L -19.280000686645508 9.600000381469727 L -20.479999542236328 9.600000381469727 L -21.520000457763672 9.600000381469727 L -21.72100067138672 9.604000091552734 L -21.910999298095703 9.616000175476074 L -22.09000015258789 9.635000228881836 L -22.257999420166016 9.661999702453613 L -22.413999557495117 9.696999549865723 L -22.559999465942383 9.739999771118164 L -22.695999145507812 9.789999961853027 L -22.82200050354004 9.847000122070312 L -22.940000534057617 9.90999984741211 L -23.048999786376953 9.979999542236328 L -23.14900016784668 10.057000160217285 L -23.239999771118164 10.140000343322754 L -23.32900047302246 10.222999572753906 L -23.3441104888916 10.239999771118164 L -23.409000396728516 10.312999725341797 L -23.479999542236328 10.40999984741211 L -23.54199981689453 10.512999534606934 L -23.59600067138672 10.623000144958496 L -23.639999389648438 10.739999771118164 L -23.68400001525879 10.869000434875488 L -23.722000122070312 11.001999855041504 L -23.7549991607666 11.140000343322754 L -23.781999588012695 11.281999588012695 L -23.797014236450195 11.382322311401367 L -23.804000854492188 11.428999900817871 L -23.81999969482422 11.579999923706055 L -23.902324676513672 12.288000106811523 L -24.020000457763672 13.300000190734863 L -24.576000213623047 13.300000190734863 L -25.81999969482422 13.300000190734863 L -25.81999969482422 12.288000106811523 L -25.81999969482422 9.380000114440918 L -25.81999969482422 9.333939552307129 L -25.81999969482422 9.210319519042969 L -25.81999969482422 9.099255561828613 L -25.81999969482422 8.953043937683105 L -25.81999969482422 8.824444770812988 L -25.81999969482422 8.74219799041748 L -25.81999969482422 8.685454368591309 L -25.81999969482422 8.192000389099121 L -25.81999969482422 7.900000095367432 L -24.576000213623047 7.900000095367432 L -16.384000778198242 7.900000095367432 L -8.359999656677246 7.900000095367432 L -8.359999656677246 8.192000389099121 L -8.359999656677246 9.862884521484375 L -8.359999656677246 10.030921936035156 L -8.359999656677246 10.234464645385742 L -8.359999656677246 10.239999771118164 L -8.359999656677246 12.288000106811523 L -8.359999656677246 13.300000190734863 L -10.15999984741211 13.300000190734863 M -26.920000076293945 9.380000114440918 L -28.100000381469727 9.380000114440918 L -28.198999404907227 9.381999969482422 L -28.29599952697754 9.388999938964844 L -28.389999389648438 9.399999618530273 L -28.48200035095215 9.416000366210938 L -28.514400482177734 9.423199653625488 L -28.57200050354004 9.435999870300293 L -28.65999984741211 9.460000038146973 L -28.672000885009766 9.463032722473145 L -28.750999450683594 9.482999801635742 L -28.836000442504883 9.512999534606934 L -28.915000915527344 9.550000190734863 L -28.98900032043457 9.593000411987305 L -29.05699920654297 9.642999649047852 L -29.1200008392334 9.699999809265137 L -29.18400001525879 9.770999908447266 L -29.242000579833984 9.848999977111816 L -29.295000076293945 9.9350004196167 L -29.341999053955078 10.029000282287598 L -29.384000778198242 10.130999565124512 L -29.420000076293945 10.239999771118164 L -29.451000213623047 10.366999626159668 L -29.47599983215332 10.506999969482422 L -29.4950008392334 10.65999984741211 L -29.509000778198242 10.82699966430664 L -29.517000198364258 11.006999969482422 L -29.520000457763672 11.199999809265137 L -29.520000457763672 12.288000106811523 L -29.520000457763672 16.384000778198242 L -29.520000457763672 24.440000534057617 L -29.517885208129883 24.576000213623047 L -29.517000198364258 24.632999420166016 L -29.509000778198242 24.812999725341797 L -29.4950008392334 24.979999542236328 L -29.47599983215332 25.132999420166016 L -29.451000213623047 25.273000717163086 L -29.420000076293945 25.399999618530273 L -29.384000778198242 25.509000778198242 L -29.346529006958008 25.600000381469727 L -29.341999053955078 25.611000061035156 L -29.295000076293945 25.704999923706055 L -29.242000579833984 25.791000366210938 L -29.18400001525879 25.868999481201172 L -29.1200008392334 25.940000534057617 L -29.05699920654297 25.996999740600586 L -28.98900032043457 26.047000885009766 L -28.915000915527344 26.09000015258789 L -28.836000442504883 26.12700080871582 L -28.750999450683594 26.156999588012695 L -28.672000885009766 26.17696762084961 L -28.65999984741211 26.18000030517578 L -28.57200050354004 26.197999954223633 L -28.48200035095215 26.21299934387207 L -28.389999389648438 26.225000381469727 L -28.29599952697754 26.232999801635742 L -28.198999404907227 26.238000869750977 L -28.100000381469727 26.239999771118164 L -26.920000076293945 26.239999771118164 L -26.920000076293945 27.719999313354492 L -28.672000885009766 27.719999313354492 L -30.719999313354492 27.719999313354492 L -32.768001556396484 27.719999313354492 L -34.816001892089844 27.719999313354492 L -36.52000045776367 27.719999313354492 L -36.52000045776367 26.53590965270996 L -36.52000045776367 26.467348098754883 L -36.52000045776367 26.410053253173828 L -36.52000045776367 26.34459114074707 L -36.52000045776367 26.300010681152344 L -36.52000045776367 26.262094497680664 L -36.52000045776367 26.239999771118164 L -35.36000061035156 26.239999771118164 L -35.255001068115234 26.238000869750977 L -35.15299987792969 26.232999801635742 L -35.05500030517578 26.225000381469727 L -34.959999084472656 26.21299934387207 L -34.86800003051758 26.197999954223633 L -34.816001892089844 26.18736457824707 L -34.779998779296875 26.18000030517578 L -34.69599914550781 26.156999588012695 L -34.61600112915039 26.12700080871582 L -34.540000915527344 26.09000015258789 L -34.46900177001953 26.047000885009766 L -34.402000427246094 25.996999740600586 L -34.34000015258789 25.940000534057617 L -34.2760009765625 25.868999481201172 L -34.21799850463867 25.791000366210938 L -34.165000915527344 25.704999923706055 L -34.11800003051758 25.611000061035156 L -34.11347198486328 25.600000381469727 L -34.07600021362305 25.509000778198242 L -34.040000915527344 25.399999618530273 L -34.00299835205078 25.273000717163086 L -33.972999572753906 25.132999420166016 L -33.95000076293945 24.979999542236328 L -33.93299865722656 24.812999725341797 L -33.92300033569336 24.632999420166016 L -33.922115325927734 24.576000213623047 L -33.91999816894531 24.440000534057617 L -33.91999816894531 16.384000778198242 L -33.91999816894531 12.288000106811523 L -33.91999816894531 11.199999809265137 L -33.92300033569336 11.006999969482422 L -33.93299865722656 10.82699966430664 L -33.95000076293945 10.65999984741211 L -33.972999572753906 10.506999969482422 L -34.00299835205078 10.366999626159668 L -34.040000915527344 10.239999771118164 L -34.07600021362305 10.130999565124512 L -34.11800003051758 10.029000282287598 L -34.165000915527344 9.9350004196167 L -34.21799850463867 9.848999977111816 L -34.2760009765625 9.770999908447266 L -34.34000015258789 9.699999809265137 L -34.402000427246094 9.642999649047852 L -34.46900177001953 9.593000411987305 L -34.540000915527344 9.550000190734863 L -34.61600112915039 9.512999534606934 L -34.69599914550781 9.482999801635742 L -34.779998779296875 9.460000038146973 L -34.816001892089844 9.45018196105957 L -34.86800003051758 9.435999870300293 L -34.959999084472656 9.416000366210938 L -35.05500030517578 9.399999618530273 L -35.15299987792969 9.388999938964844 L -35.255001068115234 9.381999969482422 L -35.36000061035156 9.380000114440918 L -36.52000045776367 9.380000114440918 L -36.52000045776367 8.192000389099121 L -36.52000045776367 7.900000095367432 L -32.768001556396484 7.900000095367432 L -26.920000076293945 7.900000095367432 L -26.920000076293945 8.192000389099121 L -26.920000076293945 8.985454559326172 L -26.920000076293945 9.020219802856445 L -26.920000076293945 9.068888664245605 L -26.920000076293945 9.14434814453125 L -26.920000076293945 9.227978706359863 L -26.920000076293945 9.289701461791992 L -26.920000076293945 9.356162071228027 L -26.920000076293945 9.380000114440918 M 14.680000305175781 -35.48099899291992 L 14.192000389099121 -35.48099899291992 L 13.894000053405762 -35.474998474121094 L 13.607000350952148 -35.45500183105469 L 13.333999633789062 -35.42300033569336 L 13.083000183105469 -35.361000061035156 L 12.859000205993652 -35.27299880981445 L 12.663999557495117 -35.16400146484375 L 12.484999656677246 -35.013999938964844 L 12.333000183105469 -34.832000732421875 L 12.288000106811523 -34.75407409667969 L 12.210000038146973 -34.61899948120117 L 12.128000259399414 -34.34700012207031 L 12.07699966430664 -34.00899887084961 L 12.0600004196167 -33.608001708984375 L 12.0600004196167 -33.17609786987305 L 12.0600004196167 -32.768001556396484 L 12.0600004196167 -24.576000213623047 L 12.0600004196167 -20.479999542236328 L 12.0600004196167 -19.974000930786133 L 12.079000473022461 -19.60099983215332 L 12.13599967956543 -19.29400062561035 L 12.227999687194824 -19.04599952697754 L 12.288000106811523 -18.94112205505371 L 12.35099983215332 -18.83099937438965 L 12.496000289916992 -18.6560001373291 L 12.66100025177002 -18.520999908447266 L 12.86299991607666 -18.423999786376953 L 13.093999862670898 -18.349000930786133 L 13.35099983215332 -18.29800033569336 L 13.616000175476074 -18.266000747680664 L 13.897000312805176 -18.246999740600586 L 14.192000389099121 -18.239999771118164 L 14.680000305175781 -18.239999771118164 L 14.680000305175781 -16.820999145507812 L 12.288000106811523 -16.820999145507812 L 8.980999946594238 -16.820999145507812 L 8.82458209991455 -16.820999145507812 L 8.471222877502441 -16.820999145507812 L 8.192000389099121 -16.820999145507812 L 6.341000080108643 -16.820999145507812 L 6.341000080108643 -17.458906173706055 L 6.341000080108643 -17.739240646362305 L 6.341000080108643 -17.9423885345459 L 6.341000080108643 -18.139047622680664 L 6.341000080108643 -18.195493698120117 L 6.341000080108643 -18.228944778442383 L 6.341000080108643 -18.239999771118164 L 6.828999996185303 -18.239999771118164 L 7.138000011444092 -18.246999740600586 L 7.432000160217285 -18.266000747680664 L 7.706999778747559 -18.29800033569336 L 7.948999881744385 -18.361000061035156 L 8.173999786376953 -18.447999954223633 L 8.192000389099121 -18.457712173461914 L 8.37600040435791 -18.55699920654297 L 8.543000221252441 -18.704999923706055 L 8.6899995803833 -18.88800048828125 L 8.812000274658203 -19.104000091552734 L 8.904999732971191 -19.378000259399414 L 8.961999893188477 -19.714000701904297 L 8.980999946594238 -20.11400032043457 L 8.980999946594238 -20.479999542236328 L 8.980999946594238 -24.576000213623047 L 8.980999946594238 -26.481000900268555 L 0.20000000298023224 -26.481000900268555 L 0.20000000298023224 -24.576000213623047 L 0.20000000298023224 -20.11400032043457 L 0.21899999678134918 -19.714000701904297 L 0.2759999930858612 -19.378000259399414 L 0.36899998784065247 -19.104000091552734 L 0.4909999966621399 -18.88800048828125 L 0.6380000114440918 -18.704999923706055 L 0.8050000071525574 -18.558000564575195 L 1.0089999437332153 -18.448999404907227 L 1.2400000095367432 -18.361000061035156 L 1.49399995803833 -18.29800033569336 L 1.7669999599456787 -18.266000747680664 L 2.053999900817871 -18.246999740600586 L 2.3519999980926514 -18.239999771118164 L 2.8399999141693115 -18.239999771118164 L 2.8399999141693115 -16.820999145507812 L 0 -16.820999145507812 L -2.8589999675750732 -16.820999145507812 L -3.0154175758361816 -16.820999145507812 L -3.368776798248291 -16.820999145507812 L -3.802886962890625 -16.820999145507812 L -4.0960001945495605 -16.820999145507812 L -5.499000072479248 -16.820999145507812 L -5.499000072479248 -17.960159301757812 L -5.499000072479248 -18.140226364135742 L -5.499000072479248 -18.194965362548828 L -5.499000072479248 -18.22853660583496 L -5.499000072479248 -18.239999771118164 L -5.011000156402588 -18.239999771118164 L -4.7129998207092285 -18.246999740600586 L -4.426000118255615 -18.266000747680664 L -4.1529998779296875 -18.29800033569336 L -4.0960001945495605 -18.312307357788086 L -3.9019999504089355 -18.361000061035156 L -3.677999973297119 -18.447999954223633 L -3.4830000400543213 -18.558000564575195 L -3.302999973297119 -18.707000732421875 L -3.1510000228881836 -18.888999938964844 L -3.0280001163482666 -19.104000091552734 L -2.934999942779541 -19.378000259399414 L -2.878000020980835 -19.714000701904297 L -2.8589999675750732 -20.11400032043457 L -2.8589999675750732 -24.576000213623047 L -2.8589999675750732 -32.768001556396484 L -2.8589999675750732 -33.72700119018555 L -2.880000114440918 -34.0890007019043 L -2.943000078201294 -34.395999908447266 L -3.0460000038146973 -34.65399932861328 L -3.1689999103546143 -34.869998931884766 L -3.313999891281128 -35.04499816894531 L -3.4809999465942383 -35.18199920654297 L -3.686000108718872 -35.290000915527344 L -3.9149999618530273 -35.369998931884766 L -4.170000076293945 -35.42300033569336 L -4.434999942779541 -35.45500183105469 L -4.715000152587891 -35.474998474121094 L -5.011000156402588 -35.48099899291992 L -5.499000072479248 -35.48099899291992 L -5.499000072479248 -36.91999816894531 L 0 -36.91999816894531 L 0.20000000298023224 -36.91999816894531 L 0.35732001066207886 -36.91999816894531 L 0.714474618434906 -36.91999816894531 L 1.1474945545196533 -36.91999816894531 L 1.669203758239746 -36.91999816894531 L 2.1666393280029297 -36.91999816894531 L 2.7999114990234375 -36.91999816894531 L 2.8399999141693115 -36.91999816894531 L 2.8399999141693115 -36.25132751464844 L 2.8399999141693115 -35.96259689331055 L 2.8399999141693115 -35.75685119628906 L 2.8399999141693115 -35.580772399902344 L 2.8399999141693115 -35.5297737121582 L 2.8399999141693115 -35.49082565307617 L 2.8399999141693115 -35.48099899291992 L 2.3519999980926514 -35.48099899291992 L 2.053999900817871 -35.474998474121094 L 1.7669999599456787 -35.45500183105469 L 1.49399995803833 -35.42300033569336 L 1.2400000095367432 -35.36000061035156 L 1.0089999437332153 -35.27299880981445 L 0.8050000071525574 -35.16400146484375 L 0.6380000114440918 -35.016998291015625 L 0.4909999966621399 -34.83399963378906 L 0.36899998784065247 -34.61800003051758 L 0.2759999930858612 -34.34299850463867 L 0.21899999678134918 -34.007999420166016 L 0.20000000298023224 -33.608001708984375 L 0.20000000298023224 -32.768001556396484 L 0.20000000298023224 -28.139999389648438 L 8.980999946594238 -28.139999389648438 L 8.980999946594238 -32.768001556396484 L 8.980999946594238 -33.608001708984375 L 8.961999893188477 -34.007999420166016 L 8.904999732971191 -34.34299850463867 L 8.812000274658203 -34.61800003051758 L 8.6899995803833 -34.83399963378906 L 8.543000221252441 -35.016998291015625 L 8.37600040435791 -35.16400146484375 L 8.192000389099121 -35.26328659057617 L 8.173999786376953 -35.27299880981445 L 7.948999881744385 -35.361000061035156 L 7.706999778747559 -35.42300033569336 L 7.432000160217285 -35.45500183105469 L 7.138000011444092 -35.474998474121094 L 6.828999996185303 -35.48099899291992 L 6.341000080108643 -35.48099899291992 L 6.341000080108643 -36.91999816894531 L 8.192000389099121 -36.91999816894531 L 12.0600004196167 -36.91999816894531 L 12.200408935546875 -36.91999816894531 L 12.288000106811523 -36.91999816894531 L 13.53874683380127 -36.91999816894531 L 14.076824188232422 -36.91999816894531 L 14.680000305175781 -36.91999816894531 L 14.680000305175781 -36.85338592529297 L 14.680000305175781 -36.2908935546875 L 14.680000305175781 -35.9883918762207 L 14.680000305175781 -35.75547790527344 L 14.680000305175781 -35.580772399902344 L 14.680000305175781 -35.5297737121582 L 14.680000305175781 -35.49082565307617 L 14.680000305175781 -35.48099899291992 M -14.460000038146973 -35.48099899291992 L -14.947999954223633 -35.48099899291992 L -15.246000289916992 -35.474998474121094 L -15.532999992370605 -35.45500183105469 L -15.809000015258789 -35.42300033569336 L -16.06100082397461 -35.369998931884766 L -16.281999588012695 -35.290000915527344 L -16.384000778198242 -35.233795166015625 L -16.47800064086914 -35.18199920654297 L -16.658000946044922 -35.042999267578125 L -16.808000564575195 -34.86899948120117 L -16.93199920654297 -34.65599822998047 L -17.02400016784668 -34.39899826049805 L -17.08099937438965 -34.090999603271484 L -17.100000381469727 -33.72700119018555 L -17.100000381469727 -32.768001556396484 L -17.100000381469727 -24.576000213623047 L -17.100000381469727 -18.459999084472656 L -16.384000778198242 -18.459999084472656 L -11.732999801635742 -18.459999084472656 L -11.352999687194824 -18.483999252319336 L -11.020000457763672 -18.55299949645996 L -10.72599983215332 -18.66699981689453 L -10.468000411987305 -18.81999969482422 L -10.243000030517578 -19.000999450683594 L -10.050000190734863 -19.211999893188477 L -9.876999855041504 -19.451000213623047 L -9.73799991607666 -19.708999633789062 L -9.630999565124512 -19.993000030517578 L -9.538000106811523 -20.280000686645508 L -9.467000007629395 -20.56399917602539 L -9.416999816894531 -20.850000381469727 L -9.123000144958496 -23.059999465942383 L -8.192000389099121 -23.058895111083984 L -7.438000202178955 -23.058000564575195 L -7.597132205963135 -18.239999771118164 L -7.599140167236328 -18.1792049407959 L -7.6032209396362305 -18.055662155151367 L -7.60859489440918 -17.892948150634766 L -7.6239914894104 -17.426794052124023 L -7.644000053405762 -16.820999145507812 L -8.192000389099121 -16.820999145507812 L -9.952984809875488 -16.820999145507812 L -10.121370315551758 -16.820999145507812 L -10.402750015258789 -16.820999145507812 L -10.658860206604004 -16.820999145507812 L -10.82608413696289 -16.820999145507812 L -11.293937683105469 -16.820999145507812 L -11.780723571777344 -16.820999145507812 L -12.237028121948242 -16.820999145507812 L -12.9529447555542 -16.820999145507812 L -13.838862419128418 -16.820999145507812 L -15.486737251281738 -16.820999145507812 L -16.384000778198242 -16.820999145507812 L -20.479999542236328 -16.820999145507812 L -22.17812156677246 -16.820999145507812 L -22.798999786376953 -16.820999145507812 L -22.798999786376953 -16.88920021057129 L -22.798999786376953 -17.42076873779297 L -22.798999786376953 -17.74073600769043 L -22.798999786376953 -17.960159301757812 L -22.798999786376953 -18.140226364135742 L -22.798999786376953 -18.194965362548828 L -22.798999786376953 -18.22853660583496 L -22.798999786376953 -18.239999771118164 L -22.31100082397461 -18.239999771118164 L -22.01300048828125 -18.246999740600586 L -21.72599983215332 -18.266000747680664 L -21.452999114990234 -18.29800033569336 L -21.20199966430664 -18.361000061035156 L -20.97800064086914 -18.447999954223633 L -20.783000946044922 -18.558000564575195 L -20.60300064086914 -18.707000732421875 L -20.479999542236328 -18.854276657104492 L -20.451000213623047 -18.888999938964844 L -20.327999114990234 -19.104000091552734 L -20.235000610351562 -19.378000259399414 L -20.17799949645996 -19.714000701904297 L -20.159000396728516 -20.11400032043457 L -20.159000396728516 -24.576000213623047 L -20.159000396728516 -32.768001556396484 L -20.159000396728516 -33.608001708984375 L -20.17799949645996 -34.007999420166016 L -20.235000610351562 -34.34299850463867 L -20.327999114990234 -34.617000579833984 L -20.451000213623047 -34.832000732421875 L -20.479999542236328 -34.866722106933594 L -20.60300064086914 -35.013999938964844 L -20.783000946044922 -35.16400146484375 L -20.97800064086914 -35.27299880981445 L -21.20199966430664 -35.361000061035156 L -21.452999114990234 -35.42300033569336 L -21.72599983215332 -35.45500183105469 L -22.01300048828125 -35.474998474121094 L -22.31100082397461 -35.48099899291992 L -22.798999786376953 -35.48099899291992 L -22.798999786376953 -36.91999816894531 L -20.479999542236328 -36.91999816894531 L -17.100000381469727 -36.91999816894531 L -16.933332443237305 -36.91999816894531 L -16.557451248168945 -36.91999816894531 L -16.384000778198242 -36.91999816894531 L -14.460000038146973 -36.91999816894531 L -14.460000038146973 -36.29396057128906 L -14.460000038146973 -35.949546813964844 L -14.460000038146973 -35.70671844482422 L -14.460000038146973 -35.57940673828125 L -14.460000038146973 -35.5297737121582 L -14.460000038146973 -35.49082565307617 L -14.460000038146973 -35.48099899291992 M -24.639999389648438 -35.48099899291992 L -25.128000259399414 -35.48099899291992 L -25.426000595092773 -35.474998474121094 L -25.71299934387207 -35.45500183105469 L -25.986000061035156 -35.42300033569336 L -26.23699951171875 -35.361000061035156 L -26.461000442504883 -35.27299880981445 L -26.6560001373291 -35.16400146484375 L -26.834999084472656 -35.013999938964844 L -26.98699951171875 -34.832000732421875 L -27.110000610351562 -34.61899948120117 L -27.191999435424805 -34.34700012207031 L -27.243000030517578 -34.00899887084961 L -27.260000228881836 -33.608001708984375 L -27.260000228881836 -32.768001556396484 L -27.260000228881836 -24.576000213623047 L -27.260000228881836 -20.113000869750977 L -27.243000030517578 -19.711999893188477 L -27.191999435424805 -19.375 L -27.110000610351562 -19.101999282836914 L -26.98699951171875 -18.888999938964844 L -26.834999084472656 -18.707000732421875 L -26.6560001373291 -18.558000564575195 L -26.461000442504883 -18.447999954223633 L -26.23699951171875 -18.361000061035156 L -25.986000061035156 -18.29800033569336 L -25.71299934387207 -18.266000747680664 L -25.426000595092773 -18.246999740600586 L -25.128000259399414 -18.239999771118164 L -24.639999389648438 -18.239999771118164 L -24.639999389648438 -16.820999145507812 L -28.672000885009766 -16.820999145507812 L -30.35947608947754 -16.820999145507812 L -30.582883834838867 -16.820999145507812 L -30.90961456298828 -16.820999145507812 L -31.303407669067383 -16.820999145507812 L -31.56141471862793 -16.820999145507812 L -32.0742073059082 -16.820999145507812 L -32.41899871826172 -16.820999145507812 L -32.41899871826172 -17.149240493774414 L -32.41899871826172 -17.563161849975586 L -32.41899871826172 -17.863889694213867 L -32.41899871826172 -18.059612274169922 L -32.41899871826172 -18.1644229888916 L -32.41899871826172 -18.21135711669922 L -32.41899871826172 -18.234996795654297 L -32.41899871826172 -18.239999771118164 L -32.21099853515625 -18.239999771118164 L -31.920000076293945 -18.246999740600586 L -31.65399932861328 -18.266000747680664 L -31.413000106811523 -18.29800033569336 L -31.20199966430664 -18.347999572753906 L -31.020999908447266 -18.420000076293945 L -30.865999221801758 -18.514999389648438 L -30.725000381469727 -18.638999938964844 L -30.60700035095215 -18.79800033569336 L -30.509000778198242 -19.000999450683594 L -30.42300033569336 -19.23699951171875 L -30.365999221801758 -19.520000457763672 L -30.339000701904297 -19.856000900268555 L -30.30715560913086 -24.576000213623047 L -30.251888275146484 -32.768001556396484 L -30.239999771118164 -34.529998779296875 L -30.854694366455078 -32.768001556396484 L -32.768001556396484 -27.283584594726562 L -36.417999267578125 -16.820999145507812 L -38.099998474121094 -16.820999145507812 L -38.15266418457031 -16.96905517578125 L -40.959999084472656 -24.861618041992188 L -43.77225112915039 -32.768001556396484 L -44.37799835205078 -34.47100067138672 L -44.36637496948242 -32.768001556396484 L -44.310462951660156 -24.576000213623047 L -44.279998779296875 -20.113000869750977 L -44.26499938964844 -19.711000442504883 L -44.220001220703125 -19.371000289916992 L -44.14699935913086 -19.0939998626709 L -44.04899978637695 -18.878000259399414 L -43.928001403808594 -18.69700050354004 L -43.7869987487793 -18.551000595092773 L -43.62099838256836 -18.44499969482422 L -43.42599868774414 -18.358999252319336 L -43.20399856567383 -18.29800033569336 L -42.95399856567383 -18.266000747680664 L -42.680999755859375 -18.246999740600586 L -42.38800048828125 -18.239999771118164 L -42.18000030517578 -18.239999771118164 L -42.18000030517578 -16.820999145507812 L -45.055999755859375 -16.820999145507812 L -46.21900177001953 -16.820999145507812 L -46.3974723815918 -16.820999145507812 L -46.80552291870117 -16.820999145507812 L -47.33243179321289 -16.820999145507812 L -47.66830825805664 -16.820999145507812 L -48.194427490234375 -16.820999145507812 L -48.85900115966797 -16.820999145507812 L -48.85900115966797 -16.86827278137207 L -48.85900115966797 -17.55577850341797 L -48.85900115966797 -17.834064483642578 L -48.85900115966797 -18.034269332885742 L -48.85900115966797 -18.13751792907715 L -48.85900115966797 -18.19379997253418 L -48.85900115966797 -18.22846031188965 L -48.85900115966797 -18.239999771118164 L -48.37099838256836 -18.239999771118164 L -48.07500076293945 -18.246999740600586 L -47.79499816894531 -18.266000747680664 L -47.529998779296875 -18.29800033569336 L -47.27299880981445 -18.349000930786133 L -47.04199981689453 -18.423999786376953 L -46.8390007019043 -18.520999908447266 L -46.67399978637695 -18.6560001373291 L -46.52899932861328 -18.83099937438965 L -46.40599822998047 -19.04800033569336 L -46.301998138427734 -19.29800033569336 L -46.2400016784668 -19.60300064086914 L -46.21900177001953 -19.974000930786133 L -46.21900177001953 -24.576000213623047 L -46.21900177001953 -32.768001556396484 L -46.21900177001953 -33.72700119018555 L -46.2400016784668 -34.0890007019043 L -46.303001403808594 -34.395999908447266 L -46.40599822998047 -34.65399932861328 L -46.52899932861328 -34.869998931884766 L -46.67399978637695 -35.04499816894531 L -46.840999603271484 -35.18199920654297 L -47.04600143432617 -35.290000915527344 L -47.275001525878906 -35.369998931884766 L -47.529998779296875 -35.42300033569336 L -47.79499816894531 -35.45500183105469 L -48.07500076293945 -35.474998474121094 L -48.37099838256836 -35.48099899291992 L -48.85900115966797 -35.48099899291992 L -48.85900115966797 -36.91999816894531 L -45.055999755859375 -36.91999816894531 L -44.39471435546875 -36.91999816894531 L -42.31800079345703 -36.91999816894531 L -40.959999084472656 -33.082828521728516 L -40.84857940673828 -32.768001556396484 L -36.709999084472656 -21.073999404907227 L -32.768001556396484 -32.29054260253906 L -32.60020065307617 -32.768001556396484 L -31.141000747680664 -36.91999816894531 L -29.406219482421875 -36.91999816894531 L -28.672000885009766 -36.91999816894531 L -27.260000228881836 -36.91999816894531 L -27.119590759277344 -36.91999816894531 L -26.80376625061035 -36.91999816894531 L -26.416316986083984 -36.91999816894531 L -25.781253814697266 -36.91999816894531 L -25.243175506591797 -36.91999816894531 L -24.639999389648438 -36.91999816894531 L -24.639999389648438 -36.85338592529297 L -24.639999389648438 -36.2908935546875 L -24.639999389648438 -35.9883918762207 L -24.639999389648438 -35.75547790527344 L -24.639999389648438 -35.580772399902344 L -24.639999389648438 -35.5297737121582 L -24.639999389648438 -35.49082565307617 L -24.639999389648438 -35.48099899291992 M 20.857999801635742 10.428999900817871 L 20.71500015258789 10.6850004196167 L 20.583999633789062 10.968999862670898 L 20.479999542236328 11.243983268737793 L 20.465999603271484 11.281000137329102 L 20.360000610351562 11.619999885559082 L 20.27400016784668 11.993000030517578 L 20.222375869750977 12.288000106811523 L 20.20400047302246 12.392999649047852 L 20.149999618530273 12.819999694824219 L 20.111000061035156 13.27299976348877 L 20.08799934387207 13.753000259399414 L 20.079999923706055 14.260000228881836 L 20.079999923706055 16.384000778198242 L 20.079999923706055 20.479999542236328 L 20.079999923706055 21.360000610351562 L 20.08799934387207 21.867000579833984 L 20.111000061035156 22.347000122070312 L 20.149999618530273 22.799999237060547 L 20.20400047302246 23.226999282836914 L 20.27400016784668 23.62700080871582 L 20.360000610351562 24 L 20.465999603271484 24.34600067138672 L 20.550430297851562 24.576000213623047 L 20.582000732421875 24.66200065612793 L 20.709999084472656 24.950000762939453 L 20.849000930786133 25.208999633789062 L 20.999000549316406 25.43899917602539 L 21.15999984741211 25.639999389648438 L 21.340999603271484 25.81100082397461 L 21.538000106811523 25.951000213623047 L 21.75 26.059999465942383 L 21.97800064086914 26.13800048828125 L 22.22100067138672 26.18400001525879 L 22.479999542236328 26.200000762939453 L 22.527999877929688 26.19703483581543 L 22.73900032043457 26.18400001525879 L 22.98200035095215 26.13800048828125 L 23.209999084472656 26.059999465942383 L 23.422000885009766 25.951000213623047 L 23.618999481201172 25.81100082397461 L 23.799999237060547 25.639999389648438 L 23.961000442504883 25.43899917602539 L 24.111000061035156 25.208999633789062 L 24.25 24.950000762939453 L 24.378000259399414 24.66200065612793 L 24.409568786621094 24.576000213623047 L 24.493999481201172 24.34600067138672 L 24.576000213623047 24.078340530395508 L 24.600000381469727 24 L 24.691999435424805 23.62700080871582 L 24.767000198364258 23.226999282836914 L 24.825000762939453 22.799999237060547 L 24.867000579833984 22.347000122070312 L 24.892000198364258 21.867000579833984 L 24.899999618530273 21.360000610351562 L 24.899999618530273 20.479999542236328 L 24.899999618530273 16.384000778198242 L 24.899999618530273 14.260000228881836 L 24.892000198364258 13.753000259399414 L 24.867000579833984 13.27299976348877 L 24.825000762939453 12.819999694824219 L 24.767000198364258 12.392999649047852 L 24.747312545776367 12.288000106811523 L 24.691999435424805 11.993000030517578 L 24.600000381469727 11.619999885559082 L 24.576000213623047 11.53781795501709 L 24.500999450683594 11.281000137329102 L 24.388999938964844 10.968999862670898 L 24.264999389648438 10.6850004196167 L 24.128999710083008 10.428999900817871 L 24.006315231323242 10.239999771118164 L 23.981000900268555 10.201000213623047 L 23.81999969482422 10 L 23.638999938964844 9.822999954223633 L 23.441999435424805 9.678000450134277 L 23.229999542236328 9.5649995803833 L 23.00200080871582 9.484000205993652 L 22.759000778198242 9.435999870300293 L 22.527999877929688 9.421730041503906 L 22.5 9.420000076293945 L 22.240999221801758 9.435999870300293 L 21.99799919128418 9.484000205993652 L 21.770000457763672 9.5649995803833 L 21.558000564575195 9.678000450134277 L 21.361000061035156 9.822999954223633 L 21.18000030517578 10 L 21.01300048828125 10.201000213623047 L 20.986486434936523 10.239999771118164 L 20.857999801635742 10.428999900817871 z" fill="none" stroke="rgb(255,0,0)" stroke-width="0.001mm" />
</svg>